<?xml version="1.0" encoding="UTF-8"?>
<svg id="Layer_1" data-name="Layer 1" xmlns="http://www.w3.org/2000/svg" viewBox="0 0 409.6 409.6">
  <defs>
    <style>
      .cls-1 {
        fill: #fff;
      }
    </style>
  </defs>
  <path class="cls-1" d="m0,213.18v196.42h409.6c0-136.53,0-273.07,0-409.6C273.07,0,136.53,0,0,0,0,65.74,0,131.48,0,197.21c.25-1.41.58-2.81.75-4.23,2.17-18.31,8.32-35.18,19.2-50.07,22.26-30.47,52.51-45.75,90.17-45.85,62.81-.17,125.62-.04,188.43-.05,20.09,0,39.06,4.39,56.35,14.81,29.41,17.71,47.36,43.46,52.48,77.5,4.94,32.81-3.8,62.08-25.57,87-22.11,25.31-50.56,37.1-84.06,37.08-62.28-.03-124.56.07-186.83-.11-8.2-.02-16.64-.38-24.56-2.27-43.02-10.29-70.89-36.82-82.95-79.52C1.73,225.55,1.11,219.3,0,213.18Z"/>
  <path d="m0,197.21c.25-1.41.58-2.81.75-4.23,2.17-18.31,8.32-35.18,19.2-50.07,22.26-30.47,52.51-45.75,90.17-45.85,62.81-.17,125.62-.04,188.43-.05,20.09,0,39.06,4.39,56.35,14.81,29.41,17.71,47.36,43.46,52.48,77.5,4.94,32.81-3.8,62.08-25.57,87-22.11,25.31-50.56,37.1-84.06,37.08-62.28-.03-124.56.07-186.83-.11-8.2-.02-16.64-.38-24.56-2.27-43.02-10.29-70.89-36.82-82.95-79.52C1.73,225.55,1.11,219.3,0,213.18v-15.97Zm192.41,8.42c.37-46.37-37.82-84.73-84.28-84.62-46.31.1-83.96,37.66-84.17,83.94-.2,46.31,37.51,84.18,84.08,84.42,46.07.24,83.99-37.4,84.36-83.74Z"/>
  <path class="cls-1" d="m108.05,289.38c46.07.24,83.99-37.4,84.36-83.74.37-46.37-37.82-84.73-84.28-84.62-46.31.1-83.96,37.66-84.17,83.94-.2,46.31,37.51,84.18,84.08,84.42Z"/>
</svg>