<?xml version="1.0" encoding="UTF-8"?>
<svg id="Layer_1" data-name="Layer 1" xmlns="http://www.w3.org/2000/svg" viewBox="0 0 409.6 409.6">
  <defs>
    <style>
      .cls-1 {
        fill: #fff;
      }
    </style>
  </defs>
  <path class="cls-1" d="m409.6,213.18v196.42H0C0,273.07,0,136.53,0,0c136.53,0,273.07,0,409.6,0,0,65.74,0,131.48,0,197.21-.25-1.41-.58-2.81-.75-4.23-2.17-18.31-8.32-35.18-19.2-50.07-22.26-30.47-52.51-45.75-90.17-45.85-62.81-.17-125.62-.04-188.43-.05-20.09,0-39.06,4.39-56.35,14.81C25.29,129.53,7.34,155.27,2.22,189.32c-4.94,32.81,3.8,62.08,25.57,87,22.11,25.31,50.56,37.1,84.06,37.08,62.28-.03,124.56.07,186.83-.11,8.2-.02,16.64-.38,24.56-2.27,43.02-10.29,70.89-36.82,82.95-79.52,1.68-5.95,2.3-12.21,3.41-18.32Z"/>
  <path d="m409.6,213.18c-1.11,6.11-1.73,12.37-3.41,18.32-12.06,42.7-39.92,69.23-82.95,79.52-7.92,1.89-16.36,2.25-24.56,2.27-62.28.18-124.56.07-186.83.11-33.5.02-61.95-11.77-84.06-37.08C6.01,251.4-2.72,222.13,2.22,189.32c5.12-34.05,23.07-59.79,52.48-77.5,17.29-10.42,36.27-14.81,56.35-14.81,62.81,0,125.62-.12,188.43.05,37.66.1,67.91,15.38,90.17,45.85,10.88,14.89,17.03,31.76,19.2,50.07.17,1.42.49,2.82.75,4.23v15.97Zm-108.05,76.2c46.57-.24,84.29-38.11,84.08-84.42-.2-46.29-37.86-83.84-84.17-83.94-46.46-.1-84.66,38.25-84.28,84.62.37,46.34,38.3,83.98,84.36,83.74Z"/>
  <path class="cls-1" d="m301.55,289.38c-46.07.24-83.99-37.4-84.36-83.74-.37-46.37,37.82-84.73,84.28-84.62,46.31.1,83.96,37.66,84.17,83.94.2,46.31-37.51,84.18-84.08,84.42Z"/>
</svg>